<?xml version="1.0" standalone="no"?>
<!DOCTYPE svg PUBLIC "-//W3C//DTD SVG 20010904//EN"
 "http://www.w3.org/TR/2001/REC-SVG-20010904/DTD/svg10.dtd">
<svg version="1.0" xmlns="http://www.w3.org/2000/svg"
 width="19.000000pt" height="19.000000pt" viewBox="0 0 19.000000 19.000000"
 preserveAspectRatio="xMidYMid meet">
<metadata>
Created by potrace 1.10, written by Peter Selinger 2001-2011
</metadata>
<g transform="translate(0.000000,19.000000) scale(0.100000,-0.100000)"
fill="#040101" stroke="none">
<path d="M22 178 c-16 -16 -15 -29 8 -58 19 -25 19 -25 34 -5 9 11 16 28 16
38 0 11 8 17 22 17 17 0 19 -3 10 -12 -7 -7 -12 -17 -12 -22 0 -6 5 -4 10 4 9
13 11 13 19 0 7 -11 3 -19 -16 -31 l-25 -17 36 -17 c20 -10 36 -20 36 -23 0
-3 -10 -17 -22 -30 -23 -26 -8 -21 25 6 12 11 17 30 17 64 0 41 -3 48 -20 48
-10 0 -24 9 -31 21 -8 15 -18 20 -35 16 -14 -2 -27 0 -30 4 -7 13 -28 11 -42
-3z m41 -23 c1 -5 -6 -11 -15 -13 -11 -2 -18 3 -18 13 0 17 30 18 33 0z"/>
<path d="M10 88 c0 -45 26 -76 65 -80 28 -3 30 -1 28 27 -3 32 -29 59 -50 51
-7 -3 -19 5 -28 17 -15 21 -15 21 -15 -15z m68 -46 c6 -20 -22 -13 -35 8 -12
17 -11 18 9 11 12 -4 24 -13 26 -19z"/>
</g>
</svg>
