<?xml version="1.0" standalone="no"?>
<!DOCTYPE svg PUBLIC "-//W3C//DTD SVG 20010904//EN"
 "http://www.w3.org/TR/2001/REC-SVG-20010904/DTD/svg10.dtd">
<svg version="1.0" xmlns="http://www.w3.org/2000/svg"
 width="18.000000pt" height="18.000000pt" viewBox="0 0 18.000000 18.000000"
 preserveAspectRatio="xMidYMid meet">
<metadata>
Created by potrace 1.10, written by Peter Selinger 2001-2011
</metadata>
<g transform="translate(0.000000,18.000000) scale(0.100000,-0.100000)"
fill="#000000" stroke="none">
<path d="M4 167 c-3 -8 -4 -47 -2 -88 l3 -74 40 -2 40 -1 -35 6 -35 7 0 75 0
75 65 0 65 0 -3 -32 c-2 -20 1 -33 8 -33 7 0 10 15 8 38 l-3 37 -73 3 c-54 2
-74 -1 -78 -11z"/>
<path d="M35 140 c3 -5 24 -10 45 -10 21 0 42 5 45 10 4 6 -13 10 -45 10 -32
0 -49 -4 -45 -10z"/>
<path d="M53 113 c15 -2 39 -2 55 0 15 2 2 4 -28 4 -30 0 -43 -2 -27 -4z"/>
<path d="M53 93 c15 -2 39 -2 55 0 15 2 2 4 -28 4 -30 0 -43 -2 -27 -4z"/>
<path d="M120 55 c-27 -27 -31 -38 -22 -47 10 -10 20 -5 48 24 20 20 33 41 30
47 -11 17 -20 14 -56 -24z m21 -18 c-11 -12 -24 -18 -27 -14 -10 10 27 48 38
41 6 -4 1 -16 -11 -27z"/>
<path d="M35 70 c3 -5 15 -10 26 -10 10 0 19 5 19 10 0 6 -12 10 -26 10 -14 0
-23 -4 -19 -10z"/>
</g>
</svg>
