<?xml version="1.0" standalone="no"?>
<!DOCTYPE svg PUBLIC "-//W3C//DTD SVG 20010904//EN"
 "http://www.w3.org/TR/2001/REC-SVG-20010904/DTD/svg10.dtd">
<svg version="1.0" xmlns="http://www.w3.org/2000/svg"
 width="18.000000pt" height="18.000000pt" viewBox="0 0 18.000000 18.000000"
 preserveAspectRatio="xMidYMid meet">
<metadata>
Created by potrace 1.10, written by Peter Selinger 2001-2011
</metadata>
<g transform="translate(0.000000,18.000000) scale(0.100000,-0.100000)"
fill="#000000" stroke="none">
<path d="M64 173 c-37 -7 -57 -38 -55 -85 1 -24 2 -52 3 -63 0 -18 7 -20 61
-18 75 2 100 22 100 83 0 61 -45 95 -109 83z m61 -53 c27 -29 15 -32 -18 -4
-16 14 -22 24 -14 24 8 0 22 -9 32 -20z m-53 -20 c-4 -18 17 -40 34 -33 8 3
14 -1 14 -11 0 -9 -5 -16 -11 -16 -33 0 -77 49 -64 71 9 13 31 5 27 -11z m48
-12 c0 -6 -7 -5 -15 2 -8 7 -15 17 -15 22 0 6 7 5 15 -2 8 -7 15 -17 15 -22z"/>
</g>
</svg>
