<?xml version="1.0" encoding="utf-8"?>
<!-- Generator: Adobe Illustrator 22.0.1, SVG Export Plug-In . SVG Version: 6.00 Build 0)  -->
<svg version="1.1" id="Слой_1" xmlns="http://www.w3.org/2000/svg" xmlns:xlink="http://www.w3.org/1999/xlink" x="0px" y="0px"
	 viewBox="0 0 16.5 16.5" style="enable-background:new 0 0 16.5 16.5;" xml:space="preserve">
<style type="text/css">
	.st0{fill:#A8A8A8;}
</style>
<path class="st0" d="M16.2,5c-0.2-2.8-2.1-4.8-4.4-4.8c-1.4,0-2.8,0.8-3.6,2c-0.8-1.3-2.1-2-3.5-2c-2.3,0-4.2,2-4.4,4.8
	c0,0.1-0.1,0.8,0.1,1.8c0.3,1.5,1.1,2.9,2.2,4l5.6,5.4l5.7-5.4c1.1-1.1,1.9-2.5,2.2-4C16.3,5.8,16.2,5.2,16.2,5z M8.2,14.8L3.2,10
	c-1-0.9-1.6-2.1-1.9-3.4C1.1,5.8,1.2,5.3,1.2,5.2l0,0c0.2-2.2,1.6-3.9,3.4-3.9c1.3,0,2.5,0.9,3.1,2.3l0.5,1.1l0.5-1.1
	c0.5-1.4,1.8-2.3,3.2-2.3c1.8,0,3.3,1.6,3.4,3.9c0,0.1,0.1,0.6-0.1,1.4v0c-0.3,1.3-1,2.5-1.9,3.4L8.2,14.8z"/>
</svg>
